HIERARCHY
ROOT Model_Hips
{
	OFFSET 0.000000 96.915077 0.000000
	CHANNELS 6 Xposition Yposition Zposition Xrotation Yrotation Zrotation
	JOINT Model_Spine
	{
		OFFSET 0.000000 11.137703 -1.289900
		CHANNELS 3 Xrotation Yrotation Zrotation
		JOINT Model_Spine1
		{
			OFFSET 0.000000 12.993942 -1.504922
			CHANNELS 3 Xrotation Yrotation Zrotation
			JOINT Model_Spine2
			{
				OFFSET 0.000000 14.850220 -1.719911
				CHANNELS 3 Xrotation Yrotation Zrotation
				JOINT Model_Neck
				{
					OFFSET 0.000000 16.706543 -1.934903
					CHANNELS 3 Xrotation Yrotation Zrotation
					JOINT Model_Head
					{
						OFFSET 0.000000 10.471298 2.002100
						CHANNELS 3 Xrotation Yrotation Zrotation
						JOINT Model_HeadTop_End
						{
							OFFSET 0.000000 20.842606 3.985100
							CHANNELS 3 Xrotation Yrotation Zrotation
							End Site
							{
								OFFSET 0.000000 21.220154 0.000000
							}
						}
					}
				}
				JOINT Model_LeftShoulder
				{
					OFFSET 7.008500 14.768600 -1.919946
					CHANNELS 3 Xrotation Yrotation Zrotation
					JOINT Model_LeftArm
					{
						OFFSET 14.126271 -3.718048 0.029937
						CHANNELS 3 Xrotation Yrotation Zrotation
						JOINT Model_LeftForeArm
						{
							OFFSET 28.282801 0.000000 0.000000
							CHANNELS 3 Xrotation Yrotation Zrotation
							JOINT Model_LeftHand
							{
								OFFSET 26.204689 0.000000 0.000000
								CHANNELS 3 Xrotation Yrotation Zrotation
								End Site
								{
									OFFSET 26.204704 0.000000 0.000000
								}
							}
						}
					}
				}
				JOINT Model_RightShoulder
				{
					OFFSET -7.008500 14.768555 -1.949840
					CHANNELS 3 Xrotation Yrotation Zrotation
					JOINT Model_RightArm
					{
						OFFSET -14.126281 -3.718018 -0.029932
						CHANNELS 3 Xrotation Yrotation Zrotation
						JOINT Model_RightForeArm
						{
							OFFSET -28.283798 0.000000 -0.000001
							CHANNELS 3 Xrotation Yrotation Zrotation
							JOINT Model_RightHand
							{
								OFFSET -26.204193 0.000000 -0.000001
								CHANNELS 3 Xrotation Yrotation Zrotation
								End Site
								{
									OFFSET -26.204208 0.000000 -0.000001
								}
							}
						}
					}
				}
			}
		}
	}
	JOINT Model_LeftUpLeg
	{
		OFFSET 8.327700 -6.193199 -0.402800
		CHANNELS 3 Xrotation Yrotation Zrotation
		JOINT Model_LeftLeg
		{
			OFFSET 0.735802 -42.108742 -0.610721
			CHANNELS 3 Xrotation Yrotation Zrotation
			JOINT Model_LeftFoot
			{
				OFFSET -0.735806 -36.833748 -0.172876
				CHANNELS 3 Xrotation Yrotation Zrotation
				JOINT Model_LeftToeBase
				{
					OFFSET -0.565857 -11.977769 16.297714
					CHANNELS 3 Xrotation Yrotation Zrotation
					JOINT Model_LeftToe_End
					{
						OFFSET -0.111712 -0.312793 7.857784
						CHANNELS 3 Xrotation Yrotation Zrotation
						End Site
						{
							OFFSET -0.111712 -0.312793 7.857784
						}
					}
				}
			}
		}
	}
	JOINT Model_RightUpLeg
	{
		OFFSET -8.327700 -6.193199 -0.516500
		CHANNELS 3 Xrotation Yrotation Zrotation
		JOINT Model_RightLeg
		{
			OFFSET -0.735785 -42.108738 -0.434061
			CHANNELS 3 Xrotation Yrotation Zrotation
			JOINT Model_RightFoot
			{
				OFFSET 0.735776 -36.833748 -0.021630
				CHANNELS 3 Xrotation Yrotation Zrotation
				JOINT Model_RightToeBase
				{
					OFFSET 0.565817 -11.977745 15.903093
					CHANNELS 3 Xrotation Yrotation Zrotation
					JOINT Model_RightToe_End
					{
						OFFSET 0.111702 -0.312791 7.811342
						CHANNELS 3 Xrotation Yrotation Zrotation
						End Site
						{
							OFFSET 0.111702 -0.312791 7.811342
						}
					}
				}
			}
		}
	}
}
MOTION
Frames: 7
Frame Time: 0.016667
0.236648 96.086273 5.031703 -7.308365 -10.085673 -4.351579 13.136505 -0.541048 1.313765 1.653503 -0.170426 -0.452088 1.652926 -0.174037 -0.449313 1.669410 3.125319 -0.419432 -3.222795 3.978008 -0.190459 0.000001 0.000000 -0.000000 0.011289 -9.636391 -20.279453 -22.205659 10.905032 -52.987139 -0.000006 -14.445034 0.000002 0.000000 -0.000001 0.000001 0.931500 -3.909886 15.013454 21.455458 17.786707 46.931435 -0.000116 100.159315 0.000120 -0.000000 -0.000000 0.000001 -0.852111 0.408480 0.047110 23.439824 10.023350 -0.094131 -15.713188 2.569039 0.449170 -2.003099 0.000001 -0.000000 0.000000 0.000000 -0.000000 -12.674196 1.977038 -0.340448 53.353797 5.296407 0.389753 0.528867 -4.258068 10.879718 -26.523812 2.370439 -6.205544 -0.000002 0.000000 0.000000 
0.144038 96.239662 6.165995 -7.302276 -10.057602 -4.851789 13.064905 -0.810980 1.744439 1.615116 -0.218766 -0.286848 1.614075 -0.221206 -0.282405 1.828108 3.120058 -0.328029 -3.066237 3.963978 -0.099366 0.000000 0.000000 -0.000000 0.021408 -9.748082 -19.907481 -22.239673 9.732868 -53.252239 -0.000003 -14.967893 0.000012 -0.000001 0.000000 0.000001 0.937956 -3.962147 15.066701 21.477438 17.653097 47.067407 -0.000267 100.328710 0.000237 0.000000 -0.000001 -0.000000 0.547990 0.923884 0.657695 22.207686 9.550283 -0.197478 -15.912865 2.456710 0.587390 -1.964803 0.000001 -0.000000 0.000000 0.000000 -0.000000 -13.590582 1.896830 0.674846 50.235526 4.162555 0.295982 -2.676205 -4.345103 10.743610 -19.064687 1.836512 -6.656037 -0.000001 0.000000 0.000001 
0.028308 96.339699 7.295007 -7.204499 -10.023728 -5.295799 12.904850 -1.126422 2.131710 1.588476 -0.274320 -0.140092 1.586966 -0.275686 -0.134035 1.956573 3.114279 -0.217224 -2.939990 3.948248 0.011108 0.000001 0.000001 -0.000000 0.032540 -9.847699 -19.552629 -22.248045 8.543543 -53.440421 -0.000023 -15.559972 0.000021 -0.000001 -0.000001 0.000000 0.953780 -4.071196 15.232903 21.473118 17.594038 47.119464 -0.000118 100.391295 0.000146 0.000001 0.000001 0.000000 1.745355 1.398079 1.219180 21.178834 9.144233 -0.290778 -16.200872 2.333100 0.667258 -1.962267 0.000001 0.000001 0.000000 0.000000 -0.000000 -14.634532 1.931817 1.522873 46.713761 2.942884 0.229785 -4.905579 -4.389560 11.166855 -10.678360 1.187537 -7.416683 0.000001 -0.000001 0.000001 
-0.110433 96.383324 8.420789 -7.009009 -9.941249 -5.659194 12.694065 -1.484094 2.465628 1.568300 -0.336210 -0.006623 1.566387 -0.336568 0.001027 2.064381 3.107958 -0.093503 -2.834463 3.931117 0.134469 0.000001 -0.000000 -0.000000 0.043759 -9.945913 -19.211183 -22.239439 7.361123 -53.570232 -0.000016 -16.199860 0.000002 0.000000 0.000000 -0.000000 0.975865 -4.211212 15.468666 21.446521 17.570382 47.143868 -0.000515 100.404074 0.000476 -0.000000 0.000001 0.000001 2.688590 1.808703 1.722854 20.464282 8.767484 -0.383679 -16.644304 2.206351 0.698329 -1.979797 0.000003 0.000001 0.000000 0.000000 -0.000000 -15.868350 2.010896 2.228175 43.264826 1.714411 0.246863 -6.796393 -4.433517 11.406256 -4.084595 0.305033 -4.331819 0.000000 0.000001 -0.000001 
-0.270328 96.446396 9.699391 -6.721771 -9.777744 -5.919135 12.432245 -1.899430 2.718748 1.553800 -0.406345 0.110706 1.551588 -0.405773 0.119928 2.148200 3.100574 0.044592 -2.753009 3.911927 0.272135 0.000000 -0.000000 -0.000000 0.054102 -10.048964 -18.886986 -22.208153 6.206408 -53.626404 -0.000014 -16.894905 -0.000026 -0.000001 -0.000000 -0.000001 1.004837 -4.379315 15.775497 21.388418 17.573138 47.168651 -0.000564 100.380169 0.000549 0.000001 0.000000 -0.000000 3.892086 2.308620 2.165454 19.192999 8.211394 -0.514309 -16.884123 2.078293 0.811856 -2.022831 0.000001 -0.000000 -0.000000 0.000000 -0.000000 -17.094635 2.085076 2.826876 39.991273 0.335512 0.134565 -9.001488 -4.495955 11.608573 0.990956 0.000013 -0.000012 -0.000001 0.000001 -0.000001 
-0.456435 96.455261 10.983751 -6.364632 -9.509919 -6.058152 12.129096 -2.377416 2.866709 1.542896 -0.484787 0.210446 1.540570 -0.483353 0.221201 2.207229 3.091090 0.195943 -2.696260 3.889680 0.422893 0.000000 -0.000000 -0.000000 0.062723 -10.163685 -18.583405 -22.155829 5.105054 -53.601754 0.000009 -17.641716 0.000035 0.000000 0.000000 0.000000 1.040176 -4.566602 16.141578 21.290839 17.585908 47.235867 -0.000043 100.342582 0.000056 0.000003 0.000001 -0.000002 4.932242 2.762023 2.532058 18.102873 7.594101 -0.658780 -17.157461 1.951344 0.906206 -2.108001 0.000001 -0.000001 0.000000 0.000000 -0.000000 -18.392086 2.166613 3.326392 37.281717 -1.291497 -0.025224 -12.412794 -4.614798 11.557362 2.370357 0.000001 0.000003 0.000001 0.000001 -0.000000 
-0.671520 96.417809 12.269510 -5.972708 -9.125979 -6.061252 11.801922 -2.906589 2.887763 1.533019 -0.569086 0.292485 1.530819 -0.566818 0.304702 2.242882 3.077955 0.356578 -2.662802 3.863070 0.582627 -0.000000 -0.000000 -0.000000 0.069205 -10.294219 -18.302764 -22.095203 4.082981 -53.500120 0.000009 -18.423250 -0.000006 0.000001 -0.000001 0.000001 1.080114 -4.761013 16.543323 21.149665 17.590389 47.391015 0.000005 100.318485 0.000004 0.000001 0.000001 -0.000000 5.919753 3.173867 2.810924 17.048531 6.889065 -0.821454 -17.443912 1.826590 0.992610 -2.189688 0.000002 -0.000000 0.000000 0.000000 -0.000000 -18.963969 2.280918 3.745754 32.716022 -3.157527 -0.253023 -14.612450 -4.589021 11.125963 3.303201 -0.000019 0.000015 0.000001 0.000001 -0.000001 
